HIERARCHY
ROOT Hips
{
	OFFSET 0.000000 0.000000 0.000000
	CHANNELS 6 Xposition Yposition Zposition Zrotation Yrotation Xrotation 
	JOINT LHipJoint
	{
		OFFSET 0.000000 0.000000 0.000000
		CHANNELS 3 Zrotation Yrotation Xrotation
		JOINT LeftUpLeg
		{
			OFFSET 1.363060 -1.794630 0.839290
			CHANNELS 3 Zrotation Yrotation Xrotation
			JOINT LeftLeg
			{
				OFFSET 2.448110 -6.726130 0.000000
				CHANNELS 3 Zrotation Yrotation Xrotation
				JOINT LeftFoot
				{
					OFFSET 2.562200 -7.039590 0.000000
					CHANNELS 3 Zrotation Yrotation Xrotation
					JOINT LeftToeBase
					{
						OFFSET 0.157640 -0.433110 2.322550
						CHANNELS 3 Zrotation Yrotation Xrotation
						End Site
						{
							OFFSET 0.000000 0.000000 0.000000
						}
					}
				}
			}
		}
	}
	JOINT RHipJoint
	{
		OFFSET 0.000000 0.000000 0.000000
		CHANNELS 3 Zrotation Yrotation Xrotation
		JOINT RightUpLeg
		{
			OFFSET -1.305520 -1.794630 0.839290
			CHANNELS 3 Zrotation Yrotation Xrotation
			JOINT RightLeg
			{
				OFFSET -2.542530 -6.985550 0.000000
				CHANNELS 3 Zrotation Yrotation Xrotation
				JOINT RightFoot
				{
					OFFSET -2.568260 -7.056230 0.000000
					CHANNELS 3 Zrotation Yrotation Xrotation
					JOINT RightToeBase
					{
						OFFSET -0.164730 -0.452590 2.363150
						CHANNELS 3 Zrotation Yrotation Xrotation
						End Site
						{
							OFFSET 0.000000 0.000000 0.000000
						}
					}
				}
			}
		}
	}
}
MOTION
Frames: 31
Frame Time: 0.008333
25.337962 16.110445 4.466374 149.523574 -89.778607 -124.084225 -14.057998 3.595515 -1.550021 0.954260 8.612298 0.233751 -0.705205 1.074204 17.020599 1.368273 9.162921 9.328551 2.298600 0.000000 -83.381300 6.667105 1.088733 3.160233 3.506219 8.738462 -61.332892 1.218887 -2.225500 35.765812 -0.974706 -3.862749 0.086772 -1.323999 -0.000000 -39.061100
25.123442 16.135168 4.413048 146.820378 -89.870629 -121.397917 -14.292344 3.529965 -1.534212 1.446387 8.735956 -0.731742 -0.516891 1.223654 19.346637 1.501766 9.654922 11.420931 2.675700 0.000001 -81.270800 6.481178 0.946547 3.054056 4.072824 8.916996 -60.827458 1.209148 -2.270181 36.785160 -1.030660 -3.922598 -0.992540 -1.225000 -0.000000 -38.795100
24.910953 16.162485 4.358069 144.790488 -89.961103 -119.409526 -14.479414 3.438706 -1.527581 1.866375 8.893487 -1.808458 -0.350329 1.356668 21.846388 1.650868 10.223432 13.261896 3.066500 0.000000 -77.936600 6.335292 0.810261 2.942083 4.670463 9.009133 -60.196585 1.229541 -2.305164 37.627753 -1.065141 -3.855942 -2.151218 -1.092100 0.000000 -38.617500
24.700789 16.192338 4.301979 -36.790874 -89.963474 62.110621 -14.624983 3.324585 -1.529699 2.196259 9.074995 -2.992244 -0.211221 1.476413 24.491763 1.807812 10.880148 14.760824 3.468700 0.000000 -73.592800 6.223036 0.677384 2.826404 5.286388 9.014732 -59.455032 1.275980 -2.330485 38.290625 -1.078801 -3.676967 -3.329463 -0.940200 -0.000000 -38.514900
24.493303 16.224818 4.245319 -38.106837 -89.913206 63.350873 -14.733669 3.191738 -1.540888 2.420292 9.268675 -4.274934 -0.100786 1.588132 27.244762 1.965126 11.630633 15.858996 3.878201 0.000000 -68.610300 6.139084 0.545418 2.709310 5.904998 8.936427 -58.618105 1.343900 -2.346280 38.772333 -1.073223 -3.403788 -4.473046 -0.783600 0.000000 -38.474100
24.288596 16.260067 4.188756 -39.342478 -89.890847 64.501487 -14.810939 3.043344 -1.561699 2.533310 9.463509 -5.646163 -0.015029 1.697037 30.062996 2.117128 12.468941 16.536913 4.285700 -0.000000 -63.453400 6.077050 0.410074 2.593598 6.514936 8.783176 -57.699566 1.429347 -2.352593 39.070079 -1.051267 -3.059584 -5.537803 -0.634600 -0.000000 -38.485000
24.087014 16.298285 4.133015 -40.675960 -89.892983 65.746194 -14.862662 2.880734 -1.592322 2.537097 9.647542 -7.094400 0.053410 1.806592 32.903202 2.260507 13.377946 16.807683 4.676900 0.000000 -58.548000 6.030198 0.266622 2.481726 7.107335 8.568016 -56.709978 1.529049 -2.349422 39.180608 -1.016495 -2.669444 -6.491246 -0.501700 0.000000 -38.538400
23.888511 16.339763 4.078555 -42.248941 -89.915121 67.226058 -14.891955 2.704461 -1.632884 2.435585 9.808600 -8.604626 0.112583 1.918140 35.724647 2.394238 14.334981 16.707772 5.035500 -0.000000 -54.230800 5.994501 0.112908 2.375370 7.672161 8.305247 -55.656383 1.639990 -2.336834 39.103308 -0.972404 -2.255683 -7.315712 -0.389200 -0.000000 -38.625800
23.693213 16.384680 4.025882 -44.208497 -89.946223 69.093052 -14.902701 2.512936 -1.683310 2.242664 9.940393 -10.166049 0.169446 2.030717 38.493889 2.517013 15.301695 16.271617 5.336600 0.000000 -50.581201 5.965145 -0.054458 2.276999 8.205534 8.013647 -54.541669 1.760495 -2.314454 38.834226 -0.922939 -1.840803 -8.004369 -0.298300 0.000000 -38.741299
23.500831 16.433146 3.975142 -46.655435 -89.974886 71.448524 -14.894201 2.305162 -1.742738 1.971688 10.036250 -11.765050 0.229150 2.141460 41.176031 2.629088 16.246091 15.550360 5.562600 0.000000 -47.683400 5.941871 -0.235144 2.188814 8.701532 7.711118 -53.366143 1.888891 -2.281938 38.373222 -0.871472 -1.442231 -8.561524 -0.227700 -0.000000 -38.878900
23.311412 16.485182 3.926429 -49.672549 -89.987350 74.375347 -14.864638 2.080272 -1.810020 1.640936 10.093198 -13.389334 0.294305 2.246812 43.739531 2.730364 17.134902 14.593012 5.697900 0.000000 -45.505600 5.925556 -0.427445 2.112857 9.159093 7.416408 -52.126419 2.024128 -2.238434 37.719356 -0.821080 -1.074780 -8.997137 -0.174600 -0.000001 -39.036100
23.124537 16.540668 3.879567 -53.284472 -89.970330 77.900632 -14.809447 1.839275 -1.884997 1.269157 10.113253 -15.030692 0.363968 2.344311 46.157773 2.819275 17.931956 13.429080 5.726300 0.000000 -43.771700 5.920075 -0.626198 2.050515 9.578362 7.147962 -50.818657 2.164944 -2.182425 36.872581 -0.774292 -0.749951 -9.323811 -0.136100 -0.000001 -39.212300
22.939664 16.599286 3.834215 -57.445453 -89.916655 81.977347 -14.723086 1.587302 -1.963878 0.869956 10.094586 -16.675835 0.436021 2.431119 48.396757 2.897203 18.626643 12.127978 5.655899 0.000000 -42.560700 5.931630 -0.823046 2.003060 9.958944 6.920367 -49.436665 2.308996 -2.111532 35.837795 -0.732626 -0.474234 -9.554770 -0.109200 0.000000 -39.408600
22.756812 16.660680 3.789944 -62.040506 -89.823183 86.492646 -14.600907 1.330990 -2.045492 0.453569 10.040682 -18.318328 0.505485 2.507420 50.431608 2.963597 19.205071 10.724971 5.490399 0.000000 -41.624499 5.966138 -1.007163 1.969190 10.300480 6.744528 -47.978490 2.453222 -2.022872 34.621722 -0.696890 -0.251377 -9.699596 -0.091300 0.000000 -39.630000
22.575158 16.724233 3.746212 -66.904566 -89.696207 91.281420 -14.441461 1.080437 -2.124776 0.022308 9.953020 -19.949067 0.567575 2.573440 52.237205 3.019757 19.671948 9.274016 5.249100 -0.000001 -40.918400 6.028255 -1.168555 1.948177 10.599751 6.623069 -46.443045 2.593367 -1.913526 33.238785 -0.666775 -0.079676 -9.766540 -0.080500 0.000000 -39.878400
22.394250 16.789377 3.702476 -71.870403 -89.547132 96.177365 -14.245897 0.843914 -2.198526 -0.427790 9.832654 -21.563033 0.617680 2.630353 53.794362 3.067028 20.037455 7.814418 4.951600 -0.000000 -40.305301 6.120086 -1.298889 1.936750 10.852071 6.551077 -44.835761 2.724938 -1.781755 31.706245 -0.641352 0.044833 -9.759215 -0.075400 -0.000000 -40.158400
22.214108 16.855421 3.658325 -76.820854 -89.390055 101.061534 -14.017587 0.628735 -2.261882 -0.905713 9.678359 -23.154569 0.652797 2.678439 55.090070 3.107492 20.319056 6.380984 4.619300 -0.000000 -39.684200 6.242043 -1.393972 1.932202 11.051255 6.514644 -43.166010 2.843734 -1.627745 30.047205 -0.619001 0.129747 -9.680240 -0.075000 -0.000000 -40.471200
22.033748 16.921636 3.613431 -81.727966 -89.238775 105.907893 -13.759427 0.439458 -2.311122 -1.421899 9.486733 -24.719974 0.671172 2.717242 56.116921 3.143623 20.537168 4.999244 4.271500 0.000000 -38.965399 6.394525 -1.452763 1.930892 11.192544 6.493916 -41.448580 2.946513 -1.453800 28.287131 -0.597703 0.184867 -9.530831 -0.078700 0.000000 -40.820400
21.857659 16.987980 3.556800 -110.278391 -88.242305 134.249988 -12.726777 0.446313 -2.702533 -2.156429 10.168351 -25.780399 0.624042 2.722449 56.604384 3.165273 20.731149 3.682253 3.932000 0.000001 -38.064900 7.287769 -1.228624 2.072033 10.981114 7.218301 -39.597452 2.937869 -1.335207 26.628005 -0.566343 0.254380 -9.308464 -0.078700 0.000000 -41.325000
21.676431 17.052576 3.510312 -116.399813 -87.954547 140.328980 -12.404748 0.409918 -2.710483 -2.776287 9.951761 -27.314966 0.575083 2.792686 57.083871 3.200688 20.873873 2.438269 3.586500 -0.000000 -37.013600 7.530763 -1.145776 2.048185 11.023804 7.201136 -37.819588 2.989430 -1.110331 24.782781 -0.534372 0.309431 -9.012522 -0.087700 0.000000 -41.746000
21.494501 17.115259 3.463273 -123.120495 -87.648575 147.010871 -12.074795 0.421525 -2.691431 -3.459112 9.692518 -28.815464 0.503663 2.863859 57.298061 3.238206 20.998081 1.271321 3.255400 0.000001 -35.798300 7.789519 -1.028683 2.011599 11.004959 7.132967 -36.039872 3.022603 -0.873903 22.926224 -0.494672 0.380669 -8.653177 -0.098400 -0.000000 -42.203200
21.311454 17.175401 3.416028 -130.702822 -87.299899 154.557636 -11.751864 0.487790 -2.641705 -4.206398 9.391362 -30.278554 0.406736 2.942054 57.253801 3.278537 21.105473 0.176855 2.939200 0.000001 -34.464200 8.049744 -0.878361 1.955664 10.924994 6.999036 -34.269176 3.039363 -0.627265 21.086593 -0.444231 0.485393 -8.237114 -0.109400 0.000000 -42.695900
21.127512 17.232400 3.369023 -139.300277 -86.885995 163.121287 -11.467605 0.607275 -2.557739 -5.020339 9.047697 -31.700670 0.282090 3.032705 56.959425 3.321154 21.189262 -0.852853 2.636000 0.000000 -33.071500 8.278342 -0.702570 1.873174 10.778184 6.789121 -32.516685 3.043580 -0.371173 19.288915 -0.380682 0.638962 -7.774055 -0.119500 0.000000 -43.226000
20.942411 17.285759 3.322650 -148.831664 -86.411297 172.614919 -11.270863 0.755933 -2.436382 -5.903739 8.651422 -33.073372 0.133427 3.131307 56.426121 3.364331 21.236942 -1.822181 2.344400 0.000000 -31.701900 8.421921 -0.526347 1.760671 10.550092 6.494151 -30.792069 3.042032 -0.109675 17.549580 -0.303753 0.849340 -7.279136 -0.127000 0.000000 -43.792701
20.756519 17.334970 3.277286 -158.911128 -85.935627 -177.350557 -11.201649 0.876931 -2.279172 -6.850520 8.175661 -34.381423 -0.024178 3.212831 55.674781 3.404501 21.228220 -2.735784 2.062900 0.000000 -30.401700 8.433393 -0.395710 1.624478 10.228235 6.103436 -29.110524 3.043809 0.144286 15.869254 -0.217392 1.109458 -6.774985 -0.130600 0.000000 -44.398400
20.569684 17.379609 3.233204 -168.812789 -85.561138 -167.501529 -11.239126 0.903307 -2.096669 -7.822955 7.590491 -35.608578 -0.167170 3.237455 54.739286 3.436393 21.136510 -3.592420 1.792401 0.000000 -29.212100 8.327351 -0.354664 1.484583 9.830750 5.617860 -27.490540 3.055152 0.369857 14.231002 -0.130738 1.390450 -6.285720 -0.129500 0.000000 -45.035200
20.382440 17.419316 3.190403 -177.969313 -85.339365 -158.408007 -11.299917 0.819403 -1.904365 -8.769981 6.897492 -36.742197 -0.283155 3.185401 53.645365 3.455450 20.944991 -4.363979 1.545400 0.000000 -28.284900 8.188305 -0.401512 1.358642 9.400599 5.055946 -25.937656 3.072425 0.553049 12.628661 -0.050694 1.670192 -5.825296 -0.122700 -0.000000 -45.716700
20.194400 17.453707 3.149008 174.238721 -85.239654 -150.674912 -11.302182 0.666985 -1.713363 -9.636728 6.140341 -37.800663 -0.379923 3.072740 52.411198 3.457928 20.636305 -5.043287 1.326000 -0.000000 -27.586300 8.101977 -0.494496 1.254684 8.993491 4.470268 -24.446840 3.087418 0.697805 11.069347 0.019706 1.932808 -5.394894 -0.110900 0.000001 -46.418600
20.006007 17.482525 3.108992 167.950202 -85.191656 -144.437502 -11.224343 0.499714 -1.527065 -10.406558 5.370171 -38.801547 -0.473330 2.929673 51.034129 3.442740 20.212513 -5.609567 1.144200 0.000000 -27.113299 8.093717 -0.591602 1.166207 8.630037 3.905226 -23.006514 3.094064 0.816404 9.577987 0.082455 2.182002 -4.993029 -0.094600 -0.000001 -47.136400
19.817369 17.505557 3.070388 163.187070 -85.148373 -139.714576 -11.083651 0.348120 -1.342660 -11.072122 4.623888 -39.765103 -0.572610 2.777647 49.509071 3.410477 19.691659 -6.015296 1.018400 0.000000 -27.012400 8.146336 -0.673952 1.088855 8.318988 3.401085 -21.608521 3.091612 0.920269 8.169465 0.138172 2.412205 -4.619289 -0.076000 -0.000000 -47.844100
19.628843 17.522707 3.032432 159.444905 -85.084242 -136.020518 -10.902468 0.219680 -1.167919 -11.669792 3.925092 -40.658074 -0.684952 2.621852 47.819950 3.360777 19.083173 -6.291672 0.936201 0.000000 -26.977600 8.241286 -0.738521 1.007688 8.028531 2.937566 -20.238802 3.079506 1.008385 6.874902 0.191201 2.652075 -4.285918 -0.053200 0.000000 -48.629700
